<?xml version="1.0" encoding="UTF-8" standalone="no"?>
<!-- Created with Inkscape (http://www.inkscape.org/) -->

<svg
   xmlns:dc="http://purl.org/dc/elements/1.1/"
   xmlns:cc="http://creativecommons.org/ns#"
   xmlns:rdf="http://www.w3.org/1999/02/22-rdf-syntax-ns#"
   xmlns:svg="http://www.w3.org/2000/svg"
   xmlns="http://www.w3.org/2000/svg"
   xmlns:sodipodi="http://sodipodi.sourceforge.net/DTD/sodipodi-0.dtd"
   xmlns:inkscape="http://www.inkscape.org/namespaces/inkscape"
   width="400mm"
   height="300mm"
   viewBox="0 0 400 300"
   version="1.1"
   id="svg8"
   inkscape:version="0.92.3 (2405546, 2018-03-11)"
   sodipodi:docname="sockel.svg">
  <defs
     id="defs2">
    <marker
       style="overflow:visible"
       refY="0.0"
       refX="0.0"
       orient="auto"
       id="DistanceX">
      <path
         id="path817"
         style="stroke:#000000; stroke-width:0.5"
         d="M 3,-3 L -3,3 M 0,-5 L  0,5" />
    </marker>
    <pattern
       y="0"
       x="0"
       width="8"
       patternUnits="userSpaceOnUse"
       id="Hatch"
       height="8">
      <path
         id="path820"
         stroke-width="0.25"
         stroke="#000000"
         linecap="square"
         d="M8 4 l-4,4" />
      <path
         id="path822"
         stroke-width="0.25"
         stroke="#000000"
         linecap="square"
         d="M6 2 l-4,4" />
      <path
         id="path824"
         stroke-width="0.25"
         stroke="#000000"
         linecap="square"
         d="M4 0 l-4,4" />
    </pattern>
    <symbol
       id="*Model_Space" />
    <symbol
       id="*Paper_Space" />
  </defs>
  <sodipodi:namedview
     id="base"
     pagecolor="#ffffff"
     bordercolor="#666666"
     borderopacity="1.0"
     inkscape:pageopacity="0.0"
     inkscape:pageshadow="2"
     inkscape:zoom="0.35"
     inkscape:cx="-64.285714"
     inkscape:cy="560"
     inkscape:document-units="mm"
     inkscape:current-layer="g1199"
     showgrid="false"
     inkscape:window-width="1600"
     inkscape:window-height="838"
     inkscape:window-x="-8"
     inkscape:window-y="-8"
     inkscape:window-maximized="1" />
  <metadata
     id="metadata5">
    <rdf:RDF>
      <cc:Work
         rdf:about="">
        <dc:format>image/svg+xml</dc:format>
        <dc:type
           rdf:resource="http://purl.org/dc/dcmitype/StillImage" />
        <dc:title></dc:title>
      </cc:Work>
    </rdf:RDF>
  </metadata>
  <g
     inkscape:label="Layer 1"
     inkscape:groupmode="layer"
     id="layer1"
     transform="translate(0,3)">
    <g
       id="g1199"
       transform="matrix(0.26458333,0,0,0.26458333,271.23907,-61.15194)">
      <g
         id="g871"
         inkscape:label="0"
         transform="translate(-140,-737.14287)">
        <path
           id="path831"
           style="fill:none;stroke:#0000ff"
           d="m -124.23259,1175.4331 v 11.5275"
           inkscape:connector-curvature="0" />
        <path
           id="path833"
           style="fill:none;stroke:#0000ff"
           d="m -124.23259,1145.1969 v -11.5276"
           inkscape:connector-curvature="0" />
        <path
           id="path835"
           style="fill:none;stroke:#0000ff"
           d="m -181.30345,1186.9606 h 57.07086"
           inkscape:connector-curvature="0" />
        <path
           id="path837"
           style="fill:none;stroke:#0000ff"
           d="m -181.30345,1133.6693 h 57.07086"
           inkscape:connector-curvature="0" />
        <path
           id="path839"
           style="fill:none;stroke:#0000ff"
           d="m -181.30345,1186.9606 v -53.2913"
           inkscape:connector-curvature="0" />
        <path
           id="path841"
           style="fill:none;stroke:#0000ff"
           d="m -124.23259,1145.1969 h 10.54392"
           inkscape:connector-curvature="0" />
        <path
           id="path843"
           style="fill:none;stroke:#0000ff"
           d="m -124.23259,1175.4331 h 10.54392"
           inkscape:connector-curvature="0" />
        <path
           id="path845"
           style="fill:none;stroke:#0000ff"
           d="m -113.38583,1538.2677 a 188.97638,188.97638 0 1 0 -377.95275,0 188.97638,188.97638 0 1 0 377.95275,0 z"
           inkscape:connector-curvature="0" />
        <path
           id="path847"
           style="fill:none;stroke:#0000ff"
           d="m 264.56693,1160.315 a 188.97638,188.97638 0 1 0 -377.95276,0 188.97638,188.97638 0 1 0 377.95276,0 z"
           inkscape:connector-curvature="0" />
        <path
           id="path849"
           style="fill:none;stroke:#0000ff"
           d="m -113.68867,1145.1969 a 188.97638,188.97638 0 0 0 -14.50279,-58.9226"
           inkscape:connector-curvature="0" />
        <path
           id="path851"
           style="fill:none;stroke:#0000ff"
           d="m -143.45114,1057.575 a 188.97638,188.97638 0 1 0 29.76247,117.8581"
           inkscape:connector-curvature="0" />
        <path
           id="path853"
           style="fill:none;stroke:#0000ff"
           d="m -146.28557,1115.1577 13.3485,-7.0976"
           inkscape:connector-curvature="0" />
        <path
           id="path855"
           style="fill:none;stroke:#0000ff"
           d="m -177.51467,1056.4243 13.3485,-7.0976"
           inkscape:connector-curvature="0" />
        <path
           id="path857"
           style="fill:none;stroke:#0000ff"
           d="m -156.18145,1064.3438 12.73031,-6.7688"
           inkscape:connector-curvature="0" />
        <path
           id="path859"
           style="fill:none;stroke:#0000ff"
           d="m -140.92178,1093.0431 12.73032,-6.7688"
           inkscape:connector-curvature="0" />
        <path
           id="path861"
           style="fill:none;stroke:#0000ff"
           d="m -491.33858,1160.315 a 188.97638,188.97638 0 1 0 -377.95276,0 188.97638,188.97638 0 1 0 377.95276,0 z"
           inkscape:connector-curvature="0" />
        <path
           id="path863"
           style="fill:none;stroke:#0000ff"
           d="m -491.33858,1538.2677 a 188.97638,188.97638 0 1 0 -377.95276,0 188.97638,188.97638 0 1 0 377.95276,0 z"
           inkscape:connector-curvature="0" />
        <path
           id="path865"
           style="fill:none;stroke:#0000ff"
           d="m 264.56693,1538.2677 a 188.97638,188.97638 0 1 0 -377.95276,0 188.97638,188.97638 0 1 0 377.95276,0 z"
           inkscape:connector-curvature="0" />
        <path
           id="path867"
           style="fill:none;stroke:#0000ff"
           d="m -140.92178,1093.0431 7.98471,15.017"
           inkscape:connector-curvature="0" />
        <path
           id="path869"
           style="fill:none;stroke:#0000ff"
           d="m -164.16617,1049.3267 7.98472,15.0171"
           inkscape:connector-curvature="0" />
      </g>
      <g
         id="g1055"
         inkscape:label="cut"
         transform="translate(-140,-737.14287)">
        <path
           id="path883"
           style="fill:none;stroke:#ff0000"
           d="m -670.86614,1680 v -283.4646 h -18.89764 V 1680 Z"
           inkscape:connector-curvature="0" />
        <path
           id="path885"
           style="fill:none;stroke:#ff0000"
           d="m -421.5926,1435.005 h 11.68914"
           inkscape:connector-curvature="0" />
        <path
           id="path887"
           style="fill:none;stroke:#ff0000"
           d="m -421.5926,1661.7766 h 11.68914"
           inkscape:connector-curvature="0" />
        <path
           id="path889"
           style="fill:none;stroke:#ff0000"
           d="m -194.82094,1661.7766 h 11.68913"
           inkscape:connector-curvature="0" />
        <path
           id="path891"
           style="fill:none;stroke:#ff0000"
           d="m -194.82094,1435.005 h 11.68913"
           inkscape:connector-curvature="0" />
        <path
           id="path893"
           style="fill:none;stroke:#ff0000"
           d="m -183.13181,1435.005 5.84457,-10.1231"
           inkscape:connector-curvature="0" />
        <path
           id="path895"
           style="fill:none;stroke:#ff0000"
           d="m -409.90346,1661.7766 5.84456,-10.1231"
           inkscape:connector-curvature="0" />
        <path
           id="path897"
           style="fill:none;stroke:#ff0000"
           d="m -183.13181,1661.7766 5.84457,-10.1231"
           inkscape:connector-curvature="0" />
        <path
           id="path899"
           style="fill:none;stroke:#ff0000"
           d="m -409.90346,1435.005 5.84456,-10.1231"
           inkscape:connector-curvature="0" />
        <path
           id="path901"
           style="fill:none;stroke:#ff0000"
           d="m -404.0589,1651.6535 -5.84456,-10.123"
           inkscape:connector-curvature="0" />
        <path
           id="path903"
           style="fill:none;stroke:#ff0000"
           d="m -177.28724,1424.8819 -5.84457,-10.1231"
           inkscape:connector-curvature="0" />
        <path
           id="path905"
           style="fill:none;stroke:#ff0000"
           d="m -177.28724,1651.6535 -5.84457,-10.123"
           inkscape:connector-curvature="0" />
        <path
           id="path907"
           style="fill:none;stroke:#ff0000"
           d="M -360.64203,1305.8268 V 1014.8031"
           inkscape:connector-curvature="0" />
        <path
           id="path909"
           style="fill:none;stroke:#ff0000"
           d="m -404.0589,1424.8819 -5.84456,-10.1231"
           inkscape:connector-curvature="0" />
        <path
           id="path911"
           style="fill:none;stroke:#ff0000"
           d="M -409.90346,1414.7588 H -421.5926"
           inkscape:connector-curvature="0" />
        <path
           id="path913"
           style="fill:none;stroke:#ff0000"
           d="M -277.49243,1305.8268 V 1014.8031"
           inkscape:connector-curvature="0" />
        <path
           id="path915"
           style="fill:none;stroke:#ff0000"
           d="m -183.13181,1641.5305 h -11.68913"
           inkscape:connector-curvature="0" />
        <path
           id="path917"
           style="fill:none;stroke:#ff0000"
           d="M -409.90346,1641.5305 H -421.5926"
           inkscape:connector-curvature="0" />
        <path
           id="path919"
           style="fill:none;stroke:#ff0000"
           d="m -183.13181,1414.7588 h -11.68913"
           inkscape:connector-curvature="0" />
        <path
           id="path921"
           style="fill:none;stroke:#ff0000"
           d="m -421.5926,1414.7588 -5.84456,10.1231"
           inkscape:connector-curvature="0" />
        <path
           id="path923"
           style="fill:none;stroke:#ff0000"
           d="m -409.77589,1046.9291 a 5.669295,5.669295 0 1 0 -11.33859,0 5.669295,5.669295 0 1 0 11.33859,0 z"
           inkscape:connector-curvature="0" />
        <path
           id="path925"
           style="fill:none;stroke:#ff0000"
           d="m -421.5926,1641.5305 -5.84456,10.123"
           inkscape:connector-curvature="0" />
        <path
           id="path927"
           style="fill:none;stroke:#ff0000"
           d="m -194.82094,1641.5305 -5.84457,10.123"
           inkscape:connector-curvature="0" />
        <path
           id="path929"
           style="fill:none;stroke:#ff0000"
           d="m -183.00424,1046.9291 a 5.6692915,5.6692915 0 1 0 -11.33858,0 5.6692915,5.6692915 0 1 0 11.33858,0 z"
           inkscape:connector-curvature="0" />
        <path
           id="path931"
           style="fill:none;stroke:#ff0000"
           d="m -194.82094,1414.7588 -5.84457,10.1231"
           inkscape:connector-curvature="0" />
        <path
           id="path933"
           style="fill:none;stroke:#ff0000"
           d="m -427.43716,1651.6535 5.84456,10.1231"
           inkscape:connector-curvature="0" />
        <path
           id="path935"
           style="fill:none;stroke:#ff0000"
           d="m -183.00424,1273.7008 a 5.6692915,5.6692915 0 1 0 -11.33858,0 5.6692915,5.6692915 0 1 0 11.33858,0 z"
           inkscape:connector-curvature="0" />
        <path
           id="path937"
           style="fill:none;stroke:#ff0000"
           d="m -200.66551,1424.8819 5.84457,10.1231"
           inkscape:connector-curvature="0" />
        <path
           id="path939"
           style="fill:none;stroke:#ff0000"
           d="m -200.66551,1651.6535 5.84457,10.1231"
           inkscape:connector-curvature="0" />
        <path
           id="path941"
           style="fill:none;stroke:#ff0000"
           d="m -409.77589,1273.7008 a 5.669295,5.669295 0 1 0 -11.33859,0 5.669295,5.669295 0 1 0 11.33859,0 z"
           inkscape:connector-curvature="0" />
        <path
           id="path943"
           style="fill:none;stroke:#ff0000"
           d="m -427.43716,1424.8819 5.84456,10.1231"
           inkscape:connector-curvature="0" />
        <path
           id="path945"
           style="fill:none;stroke:#ff0000"
           d="m -311.81102,1492.9134 v 90.7086 z"
           inkscape:connector-curvature="0" />
        <path
           id="path947"
           style="fill:none;stroke:#ff0000"
           d="M -164.40945,1527.4961 V 1511.811"
           inkscape:connector-curvature="0" />
        <path
           id="path949"
           style="fill:none;stroke:#ff0000"
           d="m -164.40945,1564.7244 v -15.685"
           inkscape:connector-curvature="0" />
        <path
           id="path951"
           style="fill:none;stroke:#ff0000"
           d="m -292.91339,1549.0394 v -21.5433 z"
           inkscape:connector-curvature="0" />
        <path
           id="path953"
           style="fill:none;stroke:#ff0000"
           d="m -356.40945,1424.8819 h 44.59843"
           inkscape:connector-curvature="0" />
        <path
           id="path955"
           style="fill:none;stroke:#ff0000"
           d="m -356.40945,1583.622 h 44.59843"
           inkscape:connector-curvature="0" />
        <path
           id="path957"
           style="fill:none;stroke:#ff0000"
           d="m -356.40945,1492.9134 h 44.59843"
           inkscape:connector-curvature="0" />
        <path
           id="path959"
           style="fill:none;stroke:#ff0000"
           d="m -356.40945,1651.6535 h 44.59843"
           inkscape:connector-curvature="0" />
        <path
           id="path961"
           style="fill:none;stroke:#ff0000"
           d="M -292.91339,1680 V 1564.7244"
           inkscape:connector-curvature="0" />
        <path
           id="path963"
           style="fill:none;stroke:#ff0000"
           d="m -311.81102,1680 v -28.3465"
           inkscape:connector-curvature="0" />
        <path
           id="path965"
           style="fill:none;stroke:#ff0000"
           d="M -292.91339,1511.811 V 1396.5354"
           inkscape:connector-curvature="0" />
        <path
           id="path967"
           style="fill:none;stroke:#ff0000"
           d="m -311.81102,1424.8819 v -28.3465"
           inkscape:connector-curvature="0" />
        <path
           id="path969"
           style="fill:none;stroke:#ff0000"
           d="m -311.81102,1396.5354 h 18.89763"
           inkscape:connector-curvature="0" />
        <path
           id="path971"
           style="fill:none;stroke:#ff0000"
           d="m -311.81102,1680 h 18.89763"
           inkscape:connector-curvature="0" />
        <path
           id="path973"
           style="fill:none;stroke:#ff0000"
           d="m -356.40945,1492.9134 v -68.0315"
           inkscape:connector-curvature="0" />
        <path
           id="path975"
           style="fill:none;stroke:#ff0000"
           d="M -356.40945,1651.6535 V 1583.622"
           inkscape:connector-curvature="0" />
        <path
           id="path977"
           style="fill:none;stroke:#ff0000"
           d="m -292.91339,1511.811 h 14.75897"
           inkscape:connector-curvature="0" />
        <path
           id="path979"
           style="fill:none;stroke:#ff0000"
           d="m -245.95202,1511.811 h 81.54257"
           inkscape:connector-curvature="0" />
        <path
           id="path981"
           style="fill:none;stroke:#ff0000"
           d="m -292.91339,1527.4961 h 128.50394"
           inkscape:connector-curvature="0" />
        <path
           id="path983"
           style="fill:none;stroke:#ff0000"
           d="m -292.91339,1549.0394 h 128.50394"
           inkscape:connector-curvature="0" />
        <path
           id="path985"
           style="fill:none;stroke:#ff0000"
           d="m -292.91339,1564.7244 h 128.50394"
           inkscape:connector-curvature="0" />
        <path
           id="path987"
           style="fill:none;stroke:#ff0000"
           d="m -788.0315,1424.8819 a 5.6692915,5.6692915 0 1 0 -11.33858,0 5.6692915,5.6692915 0 1 0 11.33858,0 z"
           inkscape:connector-curvature="0" />
        <path
           id="path989"
           style="fill:none;stroke:#ff0000"
           d="m -32.125984,1424.8819 a 5.6692915,5.6692915 0 1 0 -11.338583,0 5.6692915,5.6692915 0 1 0 11.338583,0 z"
           inkscape:connector-curvature="0" />
        <path
           id="path991"
           style="fill:none;stroke:#ff0000"
           d="m -561.25984,1424.8819 a 5.669295,5.669295 0 1 0 -11.33859,0 5.669295,5.669295 0 1 0 11.33859,0 z"
           inkscape:connector-curvature="0" />
        <path
           id="path993"
           style="fill:none;stroke:#ff0000"
           d="m 194.64567,1424.8819 a 5.669291,5.669291 0 1 0 -11.33858,0 5.669291,5.669291 0 1 0 11.33858,0 z"
           inkscape:connector-curvature="0" />
        <path
           id="path995"
           style="fill:none;stroke:#ff0000"
           d="m -561.25984,1651.6535 a 5.669295,5.669295 0 1 0 -11.33859,0 5.669295,5.669295 0 1 0 11.33859,0 z"
           inkscape:connector-curvature="0" />
        <path
           id="path997"
           style="fill:none;stroke:#ff0000"
           d="m 194.64567,1651.6535 a 5.669291,5.669291 0 1 0 -11.33858,0 5.669291,5.669291 0 1 0 11.33858,0 z"
           inkscape:connector-curvature="0" />
        <path
           id="path999"
           style="fill:none;stroke:#ff0000"
           d="m -788.0315,1651.6535 a 5.6692915,5.6692915 0 1 0 -11.33858,0 5.6692915,5.6692915 0 1 0 11.33858,0 z"
           inkscape:connector-curvature="0" />
        <path
           id="path1001"
           style="fill:none;stroke:#ff0000"
           d="m -32.125984,1651.6535 a 5.6692915,5.6692915 0 1 0 -11.338583,0 5.6692915,5.6692915 0 1 0 11.338583,0 z"
           inkscape:connector-curvature="0" />
        <path
           id="path1003"
           style="fill:none;stroke:#ff0000"
           d="m -30.23622,1046.9291 a 7.5590555,7.5590555 0 1 0 -15.118111,0 7.5590555,7.5590555 0 1 0 15.118111,0 z"
           inkscape:connector-curvature="0" />
        <path
           id="path1005"
           style="fill:none;stroke:#ff0000"
           d="m 196.53543,1046.9291 a 7.559055,7.559055 0 1 0 -15.11811,0 7.559055,7.559055 0 1 0 15.11811,0 z"
           inkscape:connector-curvature="0" />
        <path
           id="path1007"
           style="fill:none;stroke:#ff0000"
           d="m 196.53543,1273.7008 a 7.559055,7.559055 0 1 0 -15.11811,0 7.559055,7.559055 0 1 0 15.11811,0 z"
           inkscape:connector-curvature="0" />
        <path
           id="path1009"
           style="fill:none;stroke:#ff0000"
           d="m -30.23622,1273.7008 a 7.5590555,7.5590555 0 1 0 -15.118111,0 7.5590555,7.5590555 0 1 0 15.118111,0 z"
           inkscape:connector-curvature="0" />
        <path
           id="path1011"
           style="fill:none;stroke:#ff0000"
           d="m -265.60198,1505.1368 75.74865,-40.2763"
           inkscape:connector-curvature="0" />
        <path
           id="path1013"
           style="fill:none;stroke:#ff0000"
           d="m -245.95202,1511.811 63.19621,-33.602"
           inkscape:connector-curvature="0" />
        <path
           id="path1015"
           style="fill:none;stroke:#ff0000"
           d="m -278.15442,1511.811 12.55244,-6.6742"
           inkscape:connector-curvature="0" />
        <path
           id="path1017"
           style="fill:none;stroke:#ff0000"
           d="m -189.85333,1464.8605 7.46362,14.037"
           inkscape:connector-curvature="0" />
        <path
           id="path1019"
           style="fill:none;stroke:#ff0000"
           d="m -200.92822,1093.7008 21.69131,-11.5334"
           inkscape:connector-curvature="0" />
        <path
           id="path1021"
           style="fill:none;stroke:#ff0000"
           d="m -190.28194,1113.7236 21.69132,-11.5335"
           inkscape:connector-curvature="0" />
        <path
           id="path1023"
           style="fill:none;stroke:#ff0000"
           d="m -181.36616,1078.1628 5.33939,-2.839"
           inkscape:connector-curvature="0" />
        <path
           id="path1025"
           style="fill:none;stroke:#ff0000"
           d="m -166.46137,1106.1947 5.3394,-2.839"
           inkscape:connector-curvature="0" />
        <path
           id="path1027"
           style="fill:none;stroke:#ff0000"
           d="m -190.28194,1113.7236 -10.64628,-20.0228"
           inkscape:connector-curvature="0" />
        <path
           id="path1029"
           style="fill:none;stroke:#ff0000"
           d="m -166.46137,1106.1947 -2.12925,-4.0046"
           inkscape:connector-curvature="0" />
        <path
           id="path1031"
           style="fill:none;stroke:#ff0000"
           d="m -179.23691,1082.1674 -2.12925,-4.0046"
           inkscape:connector-curvature="0" />
        <path
           id="path1033"
           style="fill:none;stroke:#ff0000"
           d="m -172.90128,1065.1008 -4.61339,-8.6765"
           inkscape:connector-curvature="0" />
        <path
           id="path1035"
           style="fill:none;stroke:#ff0000"
           d="m -146.28557,1115.1577 -4.61339,-8.6766"
           inkscape:connector-curvature="0" />
        <path
           id="path1037"
           style="fill:none;stroke:#ff0000"
           d="m -176.02677,1075.3238 a 7.559055,7.559055 0 0 0 3.12549,-10.223"
           inkscape:connector-curvature="0" />
        <path
           id="path1039"
           style="fill:none;stroke:#ff0000"
           d="m -150.89896,1106.4811 a 7.559055,7.559055 0 0 0 -10.22301,-3.1254"
           inkscape:connector-curvature="0" />
        <path
           id="path1041"
           style="fill:none;stroke:#ff0000"
           d="m -360.64203,1014.8031 h 83.1496"
           inkscape:connector-curvature="0" />
        <path
           id="path1043"
           style="fill:none;stroke:#ff0000"
           d="m -360.64203,1305.8268 h 83.1496"
           inkscape:connector-curvature="0" />
        <path
           id="path1045"
           style="fill:none;stroke:#ff0000"
           d="M 81.070866,1680 V 1396.5354 H 70.110236 V 1680 Z"
           inkscape:connector-curvature="0" />
        <path
           id="path1047"
           style="fill:none;stroke:#ff0000"
           d="M -812.59843,1154.2677 H -548.0315"
           inkscape:connector-curvature="0" />
        <path
           id="path1049"
           style="fill:none;stroke:#ff0000"
           d="M -812.59843,1166.3622 H -548.0315"
           inkscape:connector-curvature="0" />
        <path
           id="path1051"
           style="fill:none;stroke:#ff0000"
           d="m -812.59843,1166.3622 v -12.0945"
           inkscape:connector-curvature="0" />
        <path
           id="path1053"
           style="fill:none;stroke:#ff0000"
           d="m -548.0315,1166.3622 v -12.0945"
           inkscape:connector-curvature="0" />
      </g>
      <g
         id="g1065"
         inkscape:label="layer 3"
         transform="translate(-140,-737.14287)">
        <path
           id="path1057"
           style="fill:none;stroke:#00ff00"
           d="m 238.40433,1171.6535 v -22.6771"
           inkscape:connector-curvature="0" />
        <path
           id="path1059"
           style="fill:none;stroke:#00ff00"
           d="m 238.40433,1148.9764 h 25.82214"
           inkscape:connector-curvature="0" />
        <path
           id="path1061"
           style="fill:none;stroke:#00ff00"
           d="m 238.40433,1171.6535 h 25.82214"
           inkscape:connector-curvature="0" />
        <path
           id="path1063"
           style="fill:none;stroke:#00ff00"
           d="m 264.22647,1171.6535 v -22.6771"
           inkscape:connector-curvature="0" />
      </g>
    </g>
  </g>
</svg>
