<?xml version="1.0" encoding="UTF-8" standalone="no"?>
<!-- Created with Inkscape (http://www.inkscape.org/) -->

<svg
   xmlns:dc="http://purl.org/dc/elements/1.1/"
   xmlns:cc="http://creativecommons.org/ns#"
   xmlns:rdf="http://www.w3.org/1999/02/22-rdf-syntax-ns#"
   xmlns:svg="http://www.w3.org/2000/svg"
   xmlns="http://www.w3.org/2000/svg"
   xmlns:sodipodi="http://sodipodi.sourceforge.net/DTD/sodipodi-0.dtd"
   xmlns:inkscape="http://www.inkscape.org/namespaces/inkscape"
   width="400mm"
   height="300mm"
   viewBox="0 0 400 300"
   version="1.1"
   id="svg8"
   inkscape:version="0.92.3 (2405546, 2018-03-11)"
   sodipodi:docname="final.svg">
  <defs
     id="defs2">
    <marker
       style="overflow:visible"
       refY="0.0"
       refX="0.0"
       orient="auto"
       id="DistanceX">
      <path
         id="path1394"
         style="stroke:#000000; stroke-width:0.5"
         d="M 3,-3 L -3,3 M 0,-5 L  0,5" />
    </marker>
    <pattern
       y="0"
       x="0"
       width="8"
       patternUnits="userSpaceOnUse"
       id="Hatch"
       height="8">
      <path
         id="path1397"
         stroke-width="0.25"
         stroke="#000000"
         linecap="square"
         d="M8 4 l-4,4" />
      <path
         id="path1399"
         stroke-width="0.25"
         stroke="#000000"
         linecap="square"
         d="M6 2 l-4,4" />
      <path
         id="path1401"
         stroke-width="0.25"
         stroke="#000000"
         linecap="square"
         d="M4 0 l-4,4" />
    </pattern>
    <symbol
       id="*MODEL_SPACE" />
    <symbol
       id="*PAPER_SPACE" />
    <marker
       id="DistanceX-2"
       orient="auto"
       refX="0.0"
       refY="0.0"
       style="overflow:visible">
      <path
         d="M 3,-3 L -3,3 M 0,-5 L  0,5"
         style="stroke:#000000; stroke-width:0.5"
         id="path1403" />
    </marker>
    <pattern
       height="8"
       id="Hatch-9"
       patternUnits="userSpaceOnUse"
       width="8"
       x="0"
       y="0">
      <path
         d="M8 4 l-4,4"
         linecap="square"
         stroke="#000000"
         stroke-width="0.25"
         id="path1406" />
      <path
         d="M6 2 l-4,4"
         linecap="square"
         stroke="#000000"
         stroke-width="0.25"
         id="path1408" />
      <path
         d="M4 0 l-4,4"
         linecap="square"
         stroke="#000000"
         stroke-width="0.25"
         id="path1410-1" />
    </pattern>
    <symbol
       id="*Model_Space" />
    <symbol
       id="*Paper_Space" />
  </defs>
  <sodipodi:namedview
     id="base"
     pagecolor="#ffffff"
     bordercolor="#666666"
     borderopacity="1.0"
     inkscape:pageopacity="0.0"
     inkscape:pageshadow="2"
     inkscape:zoom="2.8"
     inkscape:cx="433.26849"
     inkscape:cy="1018.2483"
     inkscape:document-units="mm"
     inkscape:current-layer="layer1-4"
     showgrid="false"
     inkscape:window-width="1600"
     inkscape:window-height="838"
     inkscape:window-x="-8"
     inkscape:window-y="-8"
     inkscape:window-maximized="1" />
  <metadata
     id="metadata5">
    <rdf:RDF>
      <cc:Work
         rdf:about="">
        <dc:format>image/svg+xml</dc:format>
        <dc:type
           rdf:resource="http://purl.org/dc/dcmitype/StillImage" />
        <dc:title />
      </cc:Work>
    </rdf:RDF>
  </metadata>
  <g
     inkscape:label="Layer 1"
     inkscape:groupmode="layer"
     id="layer1"
     transform="translate(0,3)">
    <g
       id="g1551"
       transform="matrix(0.26458333,0,0,0.26458333,229.46638,-457.53298)">
      <g
         id="g1408"
         inkscape:label="0" />
      <g
         id="g1598"
         transform="matrix(-1,0,0,1,-1163.1526,-37.142858)">
        <path
           inkscape:connector-curvature="0"
           id="path826"
           d="m 112.68753,168.48928 c -5.78284,-0.47434 -9.70033,-2.25071 -11.84522,-5.37122 -1.461014,-2.12559 -1.643116,-2.83278 -2.160302,-8.38923 -0.433817,-4.66082 -0.765535,-8.01412 -0.950219,-9.60569 -0.05318,-0.45825 -0.17831,-0.79697 -0.294473,-0.79697 -0.111025,0 -1.104418,0.1927 -2.207383,0.42821 -1.102983,0.23553 -2.345175,0.49822 -2.760452,0.58376 -0.415259,0.0856 -1.472299,0.31185 -2.348983,0.50294 -0.876676,0.19105 -2.499989,0.54166 -3.607361,0.77911 -2.474493,0.53058 -2.679709,0.57481 -5.28522,1.13925 -7.928796,1.71763 -9.034544,1.84597 -11.628284,1.34965 -5.663141,-1.08368 -9.602819,-4.18769 -12.121605,-9.55034 -1.443012,-3.07228 -1.993627,-5.59388 -1.871643,-8.57148 0.176813,-4.31535 1.930676,-7.40922 5.035379,-8.88253 2.236738,-1.06143 4.238417,-1.3231 6.493184,-0.84879 1.107515,0.23299 2.012467,0.20367 2.012467,-0.0651 0,-0.0619 -0.495459,-0.6011 -1.101032,-1.19826 -2.728578,-2.69074 -4.268089,-6.77647 -4.268089,-11.32715 0,-2.04026 -0.02052,-2.07286 -1.633361,-2.60165 -2.802746,-0.91894 -5.855844,-2.66609 -8.26593,-4.73023 -2.120498,-1.816137 -3.567541,-3.726822 -5.044301,-6.660626 l -0.844393,-1.67752 -0.830812,0.329937 c -0.456937,0.181442 -1.222046,0.48524 -1.700232,0.675063 -2.973729,1.180502 -5.6387,1.662076 -9.197661,1.662076 -4.971885,0 -8.655596,-1.031126 -12.164391,-3.404992 -2.267179,-1.533868 -4.980678,-4.788276 -5.786934,-6.940515 -0.775784,-2.070856 -0.912588,-2.889981 -0.891268,-5.336168 0.03392,-3.886333 0.898865,-6.89411 2.812722,-9.780372 0.813724,-1.227148 3.632331,-4.305329 5.627224,-6.145433 3.820018,-3.523615 5.931894,-5.762534 8.321813,-8.822445 0.845091,-1.082018 2.157639,-2.962923 2.517291,-3.607376 0.103041,-0.184564 0.491084,-0.829258 0.862407,-1.432648 1.117678,-1.816173 1.995723,-3.700344 2.30361,-4.943169 0.493036,-1.990248 1.098181,-3.767825 1.940123,-5.699071 0.796791,-1.827646 2.177163,-4.466078 2.592485,-4.955268 0.117581,-0.138387 0.341408,-0.503669 0.497513,-0.811656 0.768357,-1.516052 5.062442,-6.584496 7.43144,-8.771594 5.923939,-5.469085 14.649314,-10.492492 21.603637,-12.437746 5.816381,-1.626948 10.835242,-2.235884 17.197934,-2.086637 2.260908,0.05302 4.601499,0.176685 5.201329,0.274753 0.59983,0.09805 1.581362,0.256978 2.181197,0.353138 1.235727,0.198105 1.485977,0.253303 4.914554,1.084028 2.55777,0.61974 5.74164,1.649567 7.29673,2.360149 0.48724,0.222617 0.91361,0.404759 0.94754,0.404759 0.21654,0 4.12728,1.945411 4.88458,2.429839 0.50752,0.324664 0.95704,0.590294 0.99894,0.590294 0.15146,0 3.65142,2.212623 4.83223,3.054866 3.15276,2.248795 6.32649,4.902107 9.02303,7.543475 1.92657,1.88715 4.51172,4.673163 4.9997,5.388134 0.13981,0.204889 0.29639,0.410275 0.34789,0.456423 0.2633,0.235958 1.42439,1.780699 2.45924,3.271797 3.274,4.717501 5.22331,8.663391 6.38235,12.919423 0.41346,1.518247 0.45699,1.949188 0.45762,4.530186 4.7e-4,2.669687 -0.0287,2.937229 -0.45634,4.177915 -0.25136,0.729066 -0.60506,1.533498 -0.78605,1.787641 -0.18096,0.254143 -0.32901,0.536633 -0.32901,0.627762 0,0.453474 -2.95152,3.171261 -3.72343,3.42857 -0.14778,0.04932 -0.21583,0.689914 -0.23771,2.238304 -0.0636,4.497904 -1.51909,8.872102 -4.35066,13.075315 -0.62167,0.922809 -1.17912,1.715595 -1.23876,1.761728 -0.36359,0.281281 -1.35545,1.673924 -1.35545,1.903155 0,0.151043 0.34679,0.815647 0.77064,1.476887 1.89176,2.951353 3.25535,6.478732 3.61331,9.347092 0.37686,3.019528 -0.2658,5.749707 -1.95783,8.317537 -1.18569,1.79941 -3.22581,3.67237 -4.95397,4.54811 -0.43228,0.21905 -0.81977,0.49614 -0.86107,0.61578 -0.0413,0.11956 0.0189,2.18059 0.13398,4.57993 0.3929,8.201 0.26548,21.34653 -0.27404,28.2717 -0.3205,4.11369 -0.99918,9.40734 -1.42533,11.11734 -0.2254,0.90443 -0.21838,1.02265 0.1096,1.84564 0.9572,2.40197 1.27279,4.37606 0.98408,6.15569 -0.38529,2.37509 -0.92059,3.51021 -2.24907,4.76918 -2.3893,2.26425 -5.36751,3.2331 -10.33313,3.36145 -1.52266,0.0392 -3.52349,0.01 -4.4463,-0.0661 z m 8.64091,-3.85242 c 1.57839,-0.41736 2.55943,-0.91947 3.55654,-1.82032 1.08363,-0.97899 1.35904,-1.70257 1.35387,-3.55701 -0.005,-1.63926 -0.22073,-2.54992 -1.06142,-4.47198 l -0.37792,-0.86409 0.44663,-2.40772 c 0.74661,-4.02488 0.96146,-5.75169 1.48946,-11.97143 0.25029,-2.94863 0.27401,-27.16 0.0284,-28.94287 l -0.15031,-1.09061 -1.84564,-0.021 c -3.13353,-0.0357 -5.68285,-0.90132 -8.67852,-2.947 -1.51484,-1.03447 -4.62487,-3.94659 -5.93413,-5.55647 l -0.65576,-0.80635 -1.0906,0.49181 c -0.59983,0.27045 -1.56928,0.66477 -2.15434,0.87626 -1.03275,0.37329 -1.06138,0.39956 -0.98257,0.90181 0.0447,0.28452 0.19749,0.89483 0.33965,1.35623 0.44558,1.44615 1.14247,3.82409 1.37682,4.69798 0.12371,0.4614 0.34823,1.25418 0.49885,1.76172 0.15064,0.50757 0.34784,1.22083 0.43822,1.58504 0.0966,0.3894 0.41149,0.90224 0.76422,1.24482 0.7223,0.70148 1.22185,1.73965 1.22185,2.53925 0,0.71942 -0.48112,1.80232 -1.02144,2.29905 -1.61936,1.48868 -4.09934,0.9756 -5.0299,-1.04065 -0.43443,-0.94132 -0.39242,-1.73291 0.14886,-2.80604 l 0.46598,-0.9238 -0.36654,-1.49076 c -0.84931,-3.45429 -2.10941,-8.34893 -2.16867,-8.42389 -0.0234,-0.0297 -0.61612,0.12042 -1.317,0.33358 l -1.274354,0.38752 v 3.62205 3.62206 l 0.441587,0.40675 c 0.242877,0.22374 0.580987,0.7088 0.751347,1.0779 1.28661,2.78769 -2.03347,5.60083 -4.582668,3.88291 -1.601618,-1.07932 -1.894237,-3.26437 -0.630025,-4.70423 l 0.496302,-0.56523 v -3.14339 -3.14341 l -0.377521,0.10405 c -0.207643,0.0571 -0.906037,0.23172 -1.552009,0.38786 -0.645962,0.1561 -1.221282,0.35202 -1.27846,0.43536 -0.05713,0.0834 -0.19022,0.69152 -0.295634,1.35151 -1.027035,6.43029 -3.903104,11.71155 -7.722095,14.17988 -2.422572,1.56578 -5.76158,2.38168 -8.405102,2.05377 -1.528195,-0.18955 -1.632193,-0.17131 -5.788574,1.01506 -1.544399,0.44082 -2.367145,0.46936 -4.068573,0.14111 -0.943873,-0.18209 -1.451092,-0.19426 -2.265087,-0.0542 -3.324742,0.57191 -4.984627,2.86118 -4.989814,6.88184 -0.0042,3.69259 1.62002,7.7867 4.165288,10.49552 1.643381,1.74901 2.652927,2.34181 5.899798,3.46424 0.322995,0.11174 1.381397,0.24758 2.352009,0.30201 1.700033,0.0953 2.905303,-0.0451 5.282197,-0.61554 0.713017,-0.17115 4.064996,-0.89602 7.801994,-1.68719 1.245805,-0.26376 2.793612,-0.59891 3.439587,-0.74477 0.645976,-0.14585 1.552009,-0.33828 2.013409,-0.42764 0.461407,-0.0893 1.140938,-0.23037 1.510063,-0.31341 0.369127,-0.0831 1.614937,-0.35674 2.768458,-0.60825 1.153513,-0.25152 2.399312,-0.52862 2.76844,-0.61575 0.369125,-0.0873 1.148243,-0.20029 1.731382,-0.25139 0.986358,-0.0863 1.093338,-0.0611 1.535265,0.3622 0.58546,0.56092 0.57717,0.5105 1.17386,7.13581 0.32879,3.65029 0.85857,8.89158 1.01456,10.03731 0.40594,2.98127 2.33142,5.02031 5.8086,6.15121 2.02159,0.65746 4.34705,0.90517 8.03157,0.85551 3.01828,-0.0407 3.72795,-0.1016 4.94963,-0.42461 z M 80.221207,119.72105 c 4.032473,-1.12364 7.129453,-5.39438 8.377438,-11.55249 0.0935,-0.46142 0.243083,-1.17868 0.332373,-1.59396 0.08936,-0.41527 0.216047,-1.42741 0.28165,-2.2492 l 0.119289,-1.49418 -0.911492,0.10717 c -5.701978,0.67015 -11.996031,-0.18961 -16.550744,-2.26078 -0.579076,-0.26333 -1.094902,-0.47877 -1.146267,-0.47877 -0.0513,0 -0.551029,-0.268217 -1.110338,-0.596027 -0.559324,-0.327817 -1.112049,-0.559497 -1.228303,-0.514897 -0.273683,0.10504 -0.528196,1.288644 -0.924347,4.298814 -0.387445,2.94412 -0.407211,4.90344 -0.07197,7.13087 0.746653,4.96059 2.739153,7.73876 6.434978,8.9724 2.101926,0.70159 4.409982,0.78497 6.397708,0.23109 z m 46.605273,-13.88909 c 3.26615,-0.86947 6.21936,-3.46024 7.28186,-6.388204 0.47897,-1.319821 0.51679,-4.344451 0.0735,-5.872455 -1.02573,-3.535372 -3.19256,-7.240006 -6.21737,-10.629994 l -0.92804,-1.040089 -0.42686,0.633733 c -0.23479,0.348535 -0.81841,1.228916 -1.29697,1.956414 -2.63097,3.999607 -8.69193,8.896513 -13.21186,10.674467 -1.30176,0.512057 -1.38928,0.6078 -1.04891,1.14736 1.39435,2.210301 4.65322,5.724998 6.58929,7.106588 3.11515,2.2229 6.52883,3.11937 9.1854,2.41218 z m -62.865759,-3.29418 c 0.06741,-0.13296 0.272956,-1.07223 0.456836,-2.08732 0.183866,-1.015094 0.493835,-2.411884 0.688804,-3.104011 0.635146,-2.254695 0.724805,-1.949255 -0.975982,-3.32488 C 60.321848,90.941194 57.37155,86.254948 55.328526,80.04075 54.845352,78.571101 54.1524,75.8467 53.904971,74.443852 c -0.09763,-0.553693 -0.262881,-1.490641 -0.367148,-2.082104 -0.245992,-1.395364 -0.238366,-7.152484 0.0114,-8.942519 0.226765,-1.622302 0.677401,-3.539849 1.266356,-5.388601 2.546835,-7.994643 8.923508,-15.268185 17.183721,-19.60058 2.272056,-1.191675 4.196644,-1.997873 5.956364,-2.49507 0.276847,-0.07823 0.918618,-0.261313 1.426179,-0.406856 0.507545,-0.14554 2.017597,-0.452632 3.355683,-0.682418 2.071087,-0.35566 2.963253,-0.417844 5.999406,-0.418157 4.81436,-4.71e-4 7.594719,0.425539 11.587288,1.775498 0.96541,0.32643 1.81782,0.530963 1.89425,0.454542 0.0764,-0.0764 -0.0143,-0.628417 -0.20169,-1.226621 -1.61774,-5.16533 -2.894966,-12.044389 -3.353293,-18.060667 l -0.206568,-2.711306 -0.519112,-0.09791 c -2.142256,-0.403889 -4.797522,-0.596863 -8.237202,-0.59863 -9.916187,-0.0056 -17.714677,2.05987 -25.881126,6.853121 -6.409411,3.761969 -12.3972,9.320013 -16.019698,14.869964 -1.101131,1.687022 -3.100671,5.672934 -3.619305,7.214739 -0.610588,1.81519 -1.179176,4.16328 -1.447557,5.977899 -0.475834,3.217425 -0.287834,8.309882 0.414238,11.220031 0.4241,1.757954 0.554591,2.214035 1.296242,4.5302 1.180215,3.685719 3.061093,7.234392 5.359756,10.112275 1.195551,1.496813 1.323649,1.885082 0.962929,2.9188 -1.776923,5.092189 -1.318704,10.63882 1.300689,15.744005 2.11186,4.115988 6.061288,7.541113 10.536588,9.137803 1.007424,0.3594 1.173146,0.359 1.356914,-0.003 z m 30.119633,-0.64215 c 0.267542,-0.0818 0.97721,-0.28041 1.577041,-0.44133 0.59984,-0.16091 1.543632,-0.4354 2.097311,-0.60995 0.553679,-0.17456 1.233213,-0.38504 1.510056,-0.46773 2.898098,-0.865647 7.797598,-2.823513 7.930148,-3.16891 0.0534,-0.139379 -0.0419,-0.485991 -0.21199,-0.770367 -0.17004,-0.284384 -0.60331,-1.083322 -0.96279,-1.775439 -0.35947,-0.692112 -0.70801,-1.31403 -0.77448,-1.38207 -0.0665,-0.06798 -1.21288,0.356073 -2.54756,0.942434 -2.940747,1.291979 -5.629769,2.275818 -8.750218,3.201402 -0.524981,0.155727 -1.020906,0.371935 -1.102073,0.480472 -0.08527,0.113875 -0.07856,1.030848 0.01582,2.168808 0.178015,2.14705 0.174644,2.14197 1.218647,1.82268 z m -6.15562,-2.426174 c 0.623344,-0.11886 1.147621,-0.31877 1.246188,-0.47503 0.21374,-0.338857 -0.244038,-2.839219 -0.762486,-4.164728 -1.236554,-3.161435 -3.288642,-4.938515 -6.991079,-6.054168 -0.978606,-0.294861 -4.093643,-0.300363 -5.055204,-0.0086 -2.663148,0.80721 -4.671209,2.543442 -6.273488,5.424218 -0.596692,1.072837 -0.559993,1.317551 0.275493,1.837342 2.326114,1.447164 5.498131,2.619001 8.514772,3.145566 0.599828,0.10476 1.430354,0.25685 1.845631,0.338057 1.129209,0.22088 5.969675,0.19239 7.200173,-0.0424 z m 7.140485,-6.008978 c 3.512277,-1.165707 8.699401,-3.395903 9.001831,-3.870341 0.0574,-0.08992 0.0403,-0.439107 -0.0379,-0.7758 -0.22319,-0.960418 -0.16873,-3.853266 0.096,-5.103089 0.48462,-2.286919 1.77277,-4.521634 3.71212,-6.439824 2.7986,-2.768055 6.31197,-4.213176 9.8694,-4.059452 l 1.32794,0.05743 0.21696,-0.922807 c 0.31666,-1.34698 0.2973,-6.069839 -0.0314,-7.661314 -0.22005,-1.065344 -0.34919,-1.341764 -0.79698,-1.706061 -1.25885,-1.024099 -3.9413,-3.755841 -5.13555,-5.229905 -3.14849,-3.886177 -6.28282,-9.236783 -8.35439,-14.261701 -0.32336,-0.784393 -0.66241,-1.518148 -0.75342,-1.630556 -0.39417,-0.48685 -3.94631,-2.125955 -5.837932,-2.693858 -5.049963,-1.516136 -10.895559,-1.769981 -16.107323,-0.699477 -1.460041,0.299877 -1.982579,0.423828 -3.439585,0.815845 -1.586002,0.426723 -5.400931,2.179601 -6.653392,3.057103 -0.24495,0.17161 -0.494319,0.312022 -0.554163,0.312022 -0.175415,0 -2.778004,1.837251 -3.78235,2.670057 -9.003731,7.46602 -12.669171,17.647102 -10.42542,28.957366 0.0915,0.461411 0.365439,1.556201 0.608678,2.432876 0.243239,0.876675 0.502529,1.820475 0.576213,2.097309 0.372762,1.400681 2.024837,5.185967 2.965788,6.795285 0.682091,1.166604 2.158679,3.198753 2.867095,3.945834 0.936889,0.988012 2.608374,2.430509 2.811894,2.426661 0.09691,-0.0015 0.402751,-0.39149 0.679598,-0.865884 0.647044,-1.108785 2.756497,-3.267436 3.942942,-4.034882 1.60765,-1.039934 3.308752,-1.700561 4.865751,-1.889629 0.507544,-0.06156 1.141492,-0.146854 1.408761,-0.189368 0.934026,-0.148594 3.862348,0.308018 5.513523,0.859687 2.249892,0.751698 3.312842,1.421274 5.074331,3.196417 1.45343,1.464687 2.389132,2.923262 3.097077,4.827698 0.213886,0.575385 0.324567,0.561261 3.273809,-0.417587 z m 0.528043,-12.397283 c -1.201585,-0.301802 -2.64529,-1.21723 -3.869964,-2.453869 L 90.517772,77.392011 89.1866,77.911159 c -3.616012,1.410145 -7.348095,2.020989 -8.945455,1.464146 -0.997489,-0.347723 -1.339982,-1.697139 -0.614808,-2.422313 0.368575,-0.368575 0.552726,-0.411831 1.75348,-0.411831 2.581466,0 5.279375,-0.760862 9.411825,-2.654281 1.100605,-0.504267 3.638351,-1.988981 4.724696,-2.764179 1.071067,-0.764297 2.139494,-1.825879 3.379259,-3.357594 0.559205,-0.690914 0.716686,-0.78767 1.281733,-0.78767 0.38462,0 0.80381,0.129408 1.0403,0.321027 0.34084,0.276235 0.39611,0.469378 0.39611,1.38422 0,0.982484 0.0521,1.133256 0.68722,1.986016 1.11093,1.491767 1.49407,2.653911 1.49352,4.530184 -4.7e-4,1.895572 -0.28505,2.57249 -1.65842,3.945852 -1.26924,1.269246 -2.794779,1.950795 -4.531288,2.024407 -0.748066,0.03165 -1.653242,-0.01597 -2.01151,-0.105892 z m 3.438225,-3.403414 c 0.405136,-0.227065 0.963126,-0.692241 1.239983,-1.033691 0.42415,-0.523209 0.50013,-0.757329 0.48283,-1.488389 -0.0222,-0.938159 -0.57744,-2.429228 -1.070977,-2.87586 -0.286886,-0.259644 -0.347049,-0.238808 -0.991184,0.343136 -0.377162,0.340739 -0.685762,0.680465 -0.685762,0.754945 0,0.0744 0.264251,0.481607 0.587252,0.904738 0.678689,0.889145 0.746629,1.474679 0.214342,1.847513 -0.626716,0.438964 -1.045378,0.312236 -1.908721,-0.577722 -0.447589,-0.461413 -0.913744,-0.838922 -1.035889,-0.838922 -0.26774,0 -1.965106,1.066598 -2.135117,1.341692 -0.187519,0.303399 1.312844,1.590776 2.218294,1.903383 1.025739,0.354134 2.131581,0.253459 3.084949,-0.280823 z m -14.24485,-6.069555 c -2.061125,-0.895502 -2.091553,-3.825688 -0.05886,-5.662157 1.222416,-1.104381 1.928665,-1.372122 3.630921,-1.376454 1.365912,-0.0029 1.596918,0.04404 2.41994,0.497899 2.71073,1.4948 2.443664,4.126181 -0.574306,5.658749 -2.051376,1.041728 -4.232719,1.39682 -5.417765,0.881963 z m -7.561435,-3.793209 c -1.610814,-0.478513 -2.564864,-1.742191 -2.564864,-3.397287 0,-2.587168 2.610656,-4.232587 4.876639,-3.073622 2.645232,1.352938 2.604557,4.925697 -0.07083,6.219103 -0.719147,0.347681 -1.589166,0.445436 -2.240971,0.251806 z M 91.37889,62.037148 c -0.369117,-0.212758 -0.897643,-0.704795 -1.174487,-1.093421 -0.438242,-0.615192 -0.503361,-0.851236 -0.503361,-1.824682 0,-1.45618 0.419825,-2.285437 1.495132,-2.953248 0.65648,-0.407694 0.972776,-0.492453 1.830436,-0.490458 1.241274,0.0029 1.871119,0.294962 2.684031,1.244678 1.453171,1.697696 0.817498,4.160601 -1.372438,5.317485 -0.655105,0.346085 -2.191775,0.242043 -2.959313,-0.200354 z m 18.66016,30.174134 c 0.7558,-0.253644 2.12894,-0.90465 3.65663,-1.733623 2.31624,-1.256838 5.90767,-4.332808 7.79038,-6.672261 1.09047,-1.355019 2.46964,-3.554187 2.62882,-4.1918 0.10846,-0.434345 -1.50728,-1.436196 -3.87704,-2.403998 -1.26538,-0.516796 -3.59922,-0.651549 -5.13697,-0.296602 -1.17243,0.270647 -2.96302,1.214095 -4.05045,2.134166 -1.53016,1.294688 -2.27876,2.320527 -3.32448,4.555612 -0.0686,0.146481 -0.21409,0.856692 -0.32347,1.578276 -0.23539,1.552881 -0.0334,3.347874 0.58528,5.204408 0.76706,2.301485 0.73061,2.269034 2.0513,1.825822 z m 22.01969,-11.988818 c 2.43353,-3.078639 3.95171,-6.193165 4.61613,-9.469876 0.53988,-2.662433 0.52236,-3.921692 -0.0513,-3.684066 -0.15314,0.06342 -0.54271,0.187685 -0.8657,0.276061 -3.82395,1.046446 -8.02332,0.755063 -11.54148,-0.800825 -0.50088,-0.221519 -0.97805,-0.361104 -1.06042,-0.310209 -0.0825,0.05088 -0.15108,0.975256 -0.15273,2.05411 -0.003,1.827134 -0.17349,3.979 -0.43079,5.43022 -0.1079,0.608464 -0.098,0.622018 0.77837,1.066099 2.07967,1.053856 4.29222,2.746008 6.44675,4.930442 0.73608,0.746309 1.395,1.356926 1.46421,1.356926 0.0692,0 0.42784,-0.381999 0.79689,-0.848882 z"
           style="fill:#000000;stroke-width:0.16778474"
           transform="matrix(3.7795276,0,0,3.7795276,-867.27452,1729.2585)" />
        <g
           style="stroke:#ff0000;stroke-opacity:1"
           inkscape:label="LAYER_1"
           id="g1482">
          <path
             inkscape:connector-curvature="0"
             d="m -792.33989,2068.1926 c -5.08618,-6.4299 -8.9472,-13.7778 -11.15906,-21.5077"
             style="fill:none;stroke:#ff0000;stroke-opacity:1"
             id="path1410" />
          <path
             inkscape:connector-curvature="0"
             d="m -803.49895,2046.6849 c -1.35479,-4.7348 -1.22837,-24.5924 0.19408,-30.4781"
             style="fill:none;stroke:#ff0000;stroke-opacity:1"
             id="path1412" />
          <path
             inkscape:connector-curvature="0"
             d="m -803.30487,2016.2068 c 4.67116,-19.3283 11.53426,-28.8732 38.74699,-53.8874"
             style="fill:none;stroke:#ff0000;stroke-opacity:1"
             id="path1414" />
          <path
             inkscape:connector-curvature="0"
             d="m -764.55788,1962.3194 c 13.52674,-12.4339 26.15454,-27.8667 35.83236,-43.7919"
             style="fill:none;stroke:#ff0000;stroke-opacity:1"
             id="path1416" />
          <path
             inkscape:connector-curvature="0"
             d="m -728.72552,1918.5275 c 5.5269,-9.0947 7.90279,-14.3008 9.75523,-21.3759"
             style="fill:none;stroke:#ff0000;stroke-opacity:1"
             id="path1418" />
          <path
             inkscape:connector-curvature="0"
             d="m -718.97029,1897.1516 c 2.24189,-8.5624 3.25202,-11.4535 6.98397,-19.9883"
             style="fill:none;stroke:#ff0000;stroke-opacity:1"
             id="path1420" />
          <path
             inkscape:connector-curvature="0"
             d="m -711.98632,1877.1633 c 9.89148,-22.6217 25.15419,-42.717 46.6353,-61.4013"
             style="fill:none;stroke:#ff0000;stroke-opacity:1"
             id="path1422" />
          <path
             inkscape:connector-curvature="0"
             d="m -665.35102,1815.762 c 4.35267,-3.7859 17.52712,-13.4483 23.17607,-16.9978"
             style="fill:none;stroke:#ff0000;stroke-opacity:1"
             id="path1424" />
          <path
             inkscape:connector-curvature="0"
             d="m -642.17495,1798.7642 c 2.96845,-1.8652 6.43005,-4.0424 7.69245,-4.8384"
             style="fill:none;stroke:#ff0000;stroke-opacity:1"
             id="path1426" />
          <path
             inkscape:connector-curvature="0"
             d="m -634.4825,1793.9258 c 8.18361,-5.1596 26.90603,-14.0482 36.43732,-17.2988"
             style="fill:none;stroke:#ff0000;stroke-opacity:1"
             id="path1428" />
          <path
             inkscape:connector-curvature="0"
             d="m -598.04518,1776.627 c 10.959,-3.7375 21.77432,-6.4873 32.70047,-8.3141"
             style="fill:none;stroke:#ff0000;stroke-opacity:1"
             id="path1430" />
          <path
             inkscape:connector-curvature="0"
             d="m -565.34471,1768.3129 c 21.00353,-3.5116 50.94784,-3.8039 69.84568,-0.6818"
             style="fill:none;stroke:#ff0000;stroke-opacity:1"
             id="path1432" />
          <path
             inkscape:connector-curvature="0"
             d="m -495.49903,1767.6311 c 7.84645,1.2963 10.10668,1.7681 21.27117,4.44"
             style="fill:none;stroke:#ff0000;stroke-opacity:1"
             id="path1434" />
          <path
             inkscape:connector-curvature="0"
             d="m -474.22786,1772.0711 c 26.69702,6.3891 54.11812,19.8818 79.89067,39.3105"
             style="fill:none;stroke:#ff0000;stroke-opacity:1"
             id="path1436" />
          <path
             inkscape:connector-curvature="0"
             d="m -394.33719,1811.3816 c 4.60288,3.4699 9.51178,7.3335 10.90869,8.5858"
             style="fill:none;stroke:#ff0000;stroke-opacity:1"
             id="path1438" />
          <path
             inkscape:connector-curvature="0"
             d="m -383.4285,1819.9674 c 1.39692,1.2523 3.75027,3.2015 5.22965,4.3315"
             style="fill:none;stroke:#ff0000;stroke-opacity:1"
             id="path1440" />
          <path
             inkscape:connector-curvature="0"
             d="m -378.19885,1824.2989 c 3.30111,2.5215 21.93609,21.3635 27.154,27.4556"
             style="fill:none;stroke:#ff0000;stroke-opacity:1"
             id="path1442" />
          <path
             inkscape:connector-curvature="0"
             d="m -351.04485,1851.7545 c 16.94597,19.785 31.96901,45.333 36.96296,62.8585"
             style="fill:none;stroke:#ff0000;stroke-opacity:1"
             id="path1444" />
          <path
             inkscape:connector-curvature="0"
             d="m -314.08189,1914.613 c 1.9095,6.7012 2.15223,7.7917 3.03864,13.6517"
             style="fill:none;stroke:#ff0000;stroke-opacity:1"
             id="path1446" />
          <path
             inkscape:connector-curvature="0"
             d="m -311.04325,1928.2647 c 1.08305,7.1601 1.20402,14.8 0.29965,18.9264"
             style="fill:none;stroke:#ff0000;stroke-opacity:1"
             id="path1448" />
          <path
             inkscape:connector-curvature="0"
             d="m -310.7436,1947.1911 c -0.35919,1.6389 -0.9633,4.4084 -1.3425,6.1546"
             style="fill:none;stroke:#ff0000;stroke-opacity:1"
             id="path1450" />
          <path
             inkscape:connector-curvature="0"
             d="m -312.0861,1953.3457 c -0.37919,1.7461 -1.99453,5.6774 -3.58965,8.7363"
             style="fill:none;stroke:#ff0000;stroke-opacity:1"
             id="path1452" />
          <path
             inkscape:connector-curvature="0"
             d="m -315.67575,1962.082 c -3.05687,5.8619 -8.27759,11.7462 -13.21044,14.8896"
             style="fill:none;stroke:#ff0000;stroke-opacity:1"
             id="path1454" />
          <path
             inkscape:connector-curvature="0"
             d="m -331.89411,1987.577 c -0.37965,8.4114 -1.76803,15.8601 -4.77262,25.6053"
             style="fill:none;stroke:#ff0000;stroke-opacity:1"
             id="path1456" />
          <path
             inkscape:connector-curvature="0"
             d="m -336.66673,2013.1823 c -2.1779,7.0639 -12.19543,24.1931 -18.95297,32.4082"
             style="fill:none;stroke:#ff0000;stroke-opacity:1"
             id="path1458" />
          <path
             inkscape:connector-curvature="0"
             d="m -328.88619,1976.9716 -2.60415,1.6595 -0.40377,8.9459"
             style="fill:none;stroke:#ff0000;stroke-opacity:1"
             id="path1460" />
          <path
             inkscape:connector-curvature="0"
             d="m -356.18166,2050.2316 c 5.80936,8.5536 12.27796,23.8058 14.11487,33.281"
             style="fill:none;stroke:#ff0000;stroke-opacity:1"
             id="path1462" />
          <path
             inkscape:connector-curvature="0"
             d="m -342.06679,2083.5126 c 1.08881,5.6162 1.07784,17.9656 -0.02,22.5411"
             style="fill:none;stroke:#ff0000;stroke-opacity:1"
             id="path1464" />
          <path
             inkscape:connector-curvature="0"
             d="m -355.6197,2045.5905 -2.03436,2.4731 1.4724,2.168"
             style="fill:none;stroke:#ff0000;stroke-opacity:1"
             id="path1466" />
          <path
             inkscape:connector-curvature="0"
             d="m -642.51968,2437.7953 v -30.2362"
             style="fill:none;stroke:#ff0000;stroke-opacity:1"
             id="path1468" />
          <path
             inkscape:connector-curvature="0"
             d="m -377.95276,2437.7953 v -30.2362"
             style="fill:none;stroke:#ff0000;stroke-opacity:1"
             id="path1470" />
          <path
             inkscape:connector-curvature="0"
             d="m -642.51968,2437.7953 h 264.56692"
             style="fill:none;stroke:#ff0000;stroke-opacity:1"
             id="path1472" />
          <path
             inkscape:connector-curvature="0"
             d="m -661.41732,2407.5591 h 18.89764"
             style="fill:none;stroke:#ff0000;stroke-opacity:1"
             id="path1474" />
          <path
             inkscape:connector-curvature="0"
             d="m -377.95276,2407.5591 h 18.89764"
             style="fill:none;stroke:#ff0000;stroke-opacity:1"
             id="path1476" />
          <path
             inkscape:connector-curvature="0"
             d="m -661.41732,2407.5591 -130.9226,-339.3666"
             style="fill:none;stroke:#ff0000;stroke-opacity:1"
             id="path1478" />
          <path
             inkscape:connector-curvature="0"
             d="m -359.05512,2407.5591 16.96834,-301.5054"
             style="fill:none;stroke:#ff0000;stroke-opacity:1"
             id="path1480" />
        </g>
      </g>
      <g
         id="layer1-4"
         inkscape:label="Layer 1"
         transform="matrix(3.7795276,0,0,3.7795276,-446.92565,1762.9275)">
        <g
           transform="matrix(0.26458333,0,0,0.26458333,-37.08952,-265.97985)"
           id="g1479"
           style="stroke:#ff0000;stroke-opacity:1">
          <g
             inkscape:label="0"
             id="g1423"
             style="stroke:#ff0000;stroke-opacity:1">
            <path
               inkscape:connector-curvature="0"
               d="m 177.78922,1050.7087 a 11.3386,11.3386 0 0 0 0,-22.6772"
               style="fill:none;stroke:#ff0000;stroke-opacity:1"
               id="path1417" />
            <path
               inkscape:connector-curvature="0"
               d="m 160.78134,1050.7087 h 17.00788"
               style="fill:none;stroke:#ff0000;stroke-opacity:1"
               id="path1419" />
            <path
               inkscape:connector-curvature="0"
               d="m 160.78134,1028.0315 h 17.00788"
               style="fill:none;stroke:#ff0000;stroke-opacity:1"
               id="path1421" />
          </g>
          <g
             inkscape:label="layer 1"
             id="g1447"
             style="stroke:#ff0000;stroke-opacity:1">
            <path
               inkscape:connector-curvature="0"
               d="m 145.66323,1058.5004 v -16.6736"
               style="fill:none;stroke:#ff0000;stroke-opacity:1"
               id="path1425" />
            <path
               inkscape:connector-curvature="0"
               d="m 145.66323,1036.9134 v -16.6736"
               style="fill:none;stroke:#ff0000;stroke-opacity:1"
               id="path1427" />
            <path
               inkscape:connector-curvature="0"
               d="m 145.66323,1036.9134 h 14.36221"
               style="fill:none;stroke:#ff0000;stroke-opacity:1"
               id="path1429" />
            <path
               inkscape:connector-curvature="0"
               d="m 145.66323,1041.8268 h 14.36221"
               style="fill:none;stroke:#ff0000;stroke-opacity:1"
               id="path1431" />
            <path
               inkscape:connector-curvature="0"
               d="m 160.02544,1041.8268 v -4.9134"
               style="fill:none;stroke:#ff0000;stroke-opacity:1"
               id="path1433" />
            <path
               inkscape:connector-curvature="0"
               d="m 160.78134,1028.0315 v -17.0079"
               style="fill:none;stroke:#ff0000;stroke-opacity:1"
               id="path1435" />
            <path
               inkscape:connector-curvature="0"
               d="m 160.78134,1067.7165 v -17.0078"
               style="fill:none;stroke:#ff0000;stroke-opacity:1"
               id="path1437" />
            <path
               inkscape:connector-curvature="0"
               d="m 160.78134,1011.0236 a 17.007874,17.007874 0 0 0 -15.11811,9.2162"
               style="fill:none;stroke:#ff0000;stroke-opacity:1"
               id="path1439" />
            <path
               inkscape:connector-curvature="0"
               d="m 145.66323,1035.8232 a 17.007874,17.007874 0 0 0 0.61364,1.0902"
               style="fill:none;stroke:#ff0000;stroke-opacity:1"
               id="path1441" />
            <path
               inkscape:connector-curvature="0"
               d="m 145.66323,1058.5004 a 17.007874,17.007874 0 0 0 15.11811,9.2161"
               style="fill:none;stroke:#ff0000;stroke-opacity:1"
               id="path1443" />
            <path
               inkscape:connector-curvature="0"
               d="m 146.27687,1041.8268 a 17.007874,17.007874 0 0 0 -0.61364,1.0902"
               style="fill:none;stroke:#ff0000;stroke-opacity:1"
               id="path1445" />
          </g>
        </g>
      </g>
    </g>
  </g>
</svg>
